<svg version="1.0" xmlns="http://www.w3.org/2000/svg"
 width="300.000000pt" height="41.000000pt" viewBox="0 0 300.000000 41.000000"
 preserveAspectRatio="xMidYMid meet">
<metadata>
Created by potrace 1.10, written by Peter Selinger 2001-2011
</metadata>
<g transform="translate(0.000000,41.000000) scale(0.100000,-0.100000)"
fill="#000000" stroke="none">
<path d="M2778 365 c-272 -46 -509 -145 -685 -288 -35 -28 -63 -52 -63 -54 0
-2 24 -3 53 -2 47 2 57 7 112 54 162 142 382 242 625 285 58 10 89 18 70 18
-19 0 -70 -6 -112 -13z"/>
<path d="M966 236 c-21 -33 -21 -32 14 -76 17 -21 30 -41 30 -44 0 -3 -33 -6
-73 -6 -62 0 -77 -3 -93 -21 l-19 -21 109 3 c108 3 109 2 128 -24 16 -21 28
-27 59 -27 l39 0 -86 117 c-47 65 -87 119 -89 121 -1 1 -10 -9 -19 -22z"/>
<path d="M68 239 c-21 -12 -25 -88 -6 -107 8 -8 52 -12 130 -12 l118 0 0 -31
0 -31 -135 4 c-136 3 -156 -3 -104 -30 17 -9 62 -12 147 -10 109 3 125 5 138
22 20 28 17 73 -6 96 -18 18 -33 20 -130 20 l-110 0 0 25 0 25 128 0 127 1
-24 19 c-20 17 -38 20 -140 20 -64 0 -124 -5 -133 -11z"/>
<path d="M460 135 l0 -115 35 0 c35 0 35 0 35 45 l0 45 103 0 c124 0 147 11
147 70 0 63 -19 70 -182 70 l-138 0 0 -115z m265 45 c0 -25 -1 -25 -97 -28
l-98 -3 0 31 0 31 98 -3 c96 -3 97 -3 97 -28z"/>
<path d="M1242 234 c-19 -13 -22 -24 -22 -93 0 -112 4 -115 137 -119 116 -4
176 5 181 29 2 12 -18 13 -123 11 l-125 -4 0 76 0 76 133 0 132 1 -24 19 c-20
18 -39 20 -145 20 -94 0 -127 -4 -144 -16z"/>
<path d="M1640 230 c0 -19 7 -20 155 -20 148 0 155 1 155 20 0 19 -7 20 -155
20 -148 0 -155 -1 -155 -20z"/>
<path d="M2091 212 c30 -21 59 -41 65 -44 5 -4 22 1 37 11 l28 18 -39 26 c-30
21 -50 27 -92 27 l-53 0 54 -38z"/>
<path d="M1640 97 l0 -73 152 0 c142 1 153 2 153 20 0 17 -9 18 -117 17 l-118
-2 0 40 0 41 70 0 c56 0 70 3 70 15 0 12 -18 15 -105 15 l-105 0 0 -73z"/>
<path d="M2273 111 l-23 -19 51 -37 c44 -32 56 -36 100 -33 l50 3 -67 48 c-83
60 -84 61 -111 38z"/>
</g>
</svg>